<svg xmlns="http://www.w3.org/2000/svg" viewBox="0 0 164.07 22.27"><defs><style>.cls-1{fill:#002939;}</style></defs><g id="Layer_2" data-name="Layer 2"><g id="Layer_1-2" data-name="Layer 1"><polygon class="cls-1" points="0 22.16 3.58 22.16 3.58 11.1 11.88 11.1 11.88 10.06 3.58 10.06 3.58 1.12 15.31 1.12 15.31 0.12 0 0.12 0 22.16"/><path class="cls-1" d="M42.46,13a27.41,27.41,0,0,1-.18,4.55,4.11,4.11,0,0,1-1.76,2.49,6.74,6.74,0,0,1-7.32,0,4.06,4.06,0,0,1-1.75-2.48A27.61,27.61,0,0,1,31.27,13V.11H27.75V12.53c0,.28,0,.54,0,.8v1a8.11,8.11,0,0,0,.66,4.21,6.5,6.5,0,0,0,3,2.6,12.25,12.25,0,0,0,5.16,1h.57a12.36,12.36,0,0,0,5.17-1,6.58,6.58,0,0,0,3-2.6A8.22,8.22,0,0,0,46,14.37v-1c0-.26,0-.52,0-.8V.11H42.46Z"/><polygon class="cls-1" points="77.39 16.38 64.68 0.17 64.64 0.12 61 0.12 61 21.61 62.01 21.61 62.01 2.38 77.81 22.16 78.63 22.16 78.63 0.12 77.39 0.12 77.39 16.38"/><rect class="cls-1" x="93.65" y="0.11" width="3.58" height="22.04"/><polygon class="cls-1" points="109.25 1.12 118.68 1.12 118.68 22.16 122.26 22.16 122.26 1.12 131.77 1.12 131.77 0.12 109.3 0.12 109.25 1.12"/><path class="cls-1" d="M151.59,9.41C150.83,5.69,147.75.7,139.11,0V3.58s8.86-.26,11.12,7.21a23.49,23.49,0,0,0-.51,2.32v9.16h3.72V13.11c0-.55,0-1.08.07-1.59s.13-1.06.25-1.69a.78.78,0,0,1,0-.14v0a17.83,17.83,0,0,1,.47-1.81c.13-.42.29-.85.47-1.28C157.28.78,164.07,1,164.07,1V0S154.13-.47,151.59,9.41Z"/></g></g></svg>